<mxfile host="Electron" modified="2024-03-27T09:29:48.867Z" agent="Mozilla/5.0 (Windows NT 10.0; Win64; x64) AppleWebKit/537.36 (KHTML, like Gecko) draw.io/24.1.0 Chrome/120.0.6099.109 Electron/28.1.0 Safari/537.36" etag="vaETxDhhc5paPaCJXw_e" version="24.1.0" type="device">
  <diagram name="Pagina-1" id="tOacH5OIMs2UoRVsOHWL">
    <mxGraphModel dx="440" dy="266" grid="1" gridSize="10" guides="1" tooltips="1" connect="1" arrows="1" fold="1" page="1" pageScale="1" pageWidth="827" pageHeight="1169" math="0" shadow="0">
      <root>
        <mxCell id="0" />
        <mxCell id="1" parent="0" />
        <mxCell id="7Kt4Oku-w0OLbl1mAjUG-13" style="edgeStyle=orthogonalEdgeStyle;rounded=0;orthogonalLoop=1;jettySize=auto;html=1;entryX=0;entryY=0.5;entryDx=0;entryDy=0;" parent="1" source="7Kt4Oku-w0OLbl1mAjUG-1" target="7Kt4Oku-w0OLbl1mAjUG-6" edge="1">
          <mxGeometry relative="1" as="geometry">
            <Array as="points">
              <mxPoint x="860" y="685" />
            </Array>
          </mxGeometry>
        </mxCell>
        <mxCell id="wIGGJUslOMY7jeg_qIJW-32" style="edgeStyle=orthogonalEdgeStyle;rounded=0;orthogonalLoop=1;jettySize=auto;html=1;entryX=0.5;entryY=0;entryDx=0;entryDy=0;" edge="1" parent="1" source="7Kt4Oku-w0OLbl1mAjUG-1" target="wIGGJUslOMY7jeg_qIJW-31">
          <mxGeometry relative="1" as="geometry" />
        </mxCell>
        <mxCell id="wIGGJUslOMY7jeg_qIJW-51" style="edgeStyle=orthogonalEdgeStyle;rounded=0;orthogonalLoop=1;jettySize=auto;html=1;entryX=0;entryY=0.5;entryDx=0;entryDy=0;endArrow=doubleBlock;endFill=1;" edge="1" parent="1" source="7Kt4Oku-w0OLbl1mAjUG-1" target="wIGGJUslOMY7jeg_qIJW-12">
          <mxGeometry relative="1" as="geometry" />
        </mxCell>
        <mxCell id="wIGGJUslOMY7jeg_qIJW-70" style="edgeStyle=orthogonalEdgeStyle;rounded=0;orthogonalLoop=1;jettySize=auto;html=1;entryX=0;entryY=0.5;entryDx=0;entryDy=0;" edge="1" parent="1" source="7Kt4Oku-w0OLbl1mAjUG-1" target="wIGGJUslOMY7jeg_qIJW-67">
          <mxGeometry relative="1" as="geometry">
            <Array as="points">
              <mxPoint x="860" y="735" />
            </Array>
          </mxGeometry>
        </mxCell>
        <mxCell id="wIGGJUslOMY7jeg_qIJW-73" style="edgeStyle=orthogonalEdgeStyle;rounded=0;orthogonalLoop=1;jettySize=auto;html=1;entryX=0;entryY=0.5;entryDx=0;entryDy=0;" edge="1" parent="1" source="7Kt4Oku-w0OLbl1mAjUG-1" target="wIGGJUslOMY7jeg_qIJW-71">
          <mxGeometry relative="1" as="geometry">
            <Array as="points">
              <mxPoint x="860" y="785" />
            </Array>
          </mxGeometry>
        </mxCell>
        <mxCell id="7Kt4Oku-w0OLbl1mAjUG-1" value="Prodotto" style="rounded=0;whiteSpace=wrap;html=1;" parent="1" vertex="1">
          <mxGeometry x="769" y="580" width="120" height="60" as="geometry" />
        </mxCell>
        <mxCell id="7Kt4Oku-w0OLbl1mAjUG-6" value="" style="ellipse;whiteSpace=wrap;html=1;aspect=fixed;" parent="1" vertex="1">
          <mxGeometry x="890" y="665" width="40" height="40" as="geometry" />
        </mxCell>
        <mxCell id="7Kt4Oku-w0OLbl1mAjUG-7" value="Marca" style="text;html=1;align=center;verticalAlign=middle;resizable=0;points=[];autosize=1;strokeColor=none;fillColor=none;" parent="1" vertex="1">
          <mxGeometry x="924" y="670" width="60" height="30" as="geometry" />
        </mxCell>
        <mxCell id="7Kt4Oku-w0OLbl1mAjUG-21" style="edgeStyle=orthogonalEdgeStyle;rounded=0;orthogonalLoop=1;jettySize=auto;html=1;entryX=0;entryY=0.5;entryDx=0;entryDy=0;" parent="1" source="7Kt4Oku-w0OLbl1mAjUG-10" target="7Kt4Oku-w0OLbl1mAjUG-15" edge="1">
          <mxGeometry relative="1" as="geometry" />
        </mxCell>
        <mxCell id="7Kt4Oku-w0OLbl1mAjUG-22" style="edgeStyle=orthogonalEdgeStyle;rounded=0;orthogonalLoop=1;jettySize=auto;html=1;entryX=0;entryY=0.5;entryDx=0;entryDy=0;" parent="1" source="7Kt4Oku-w0OLbl1mAjUG-10" target="7Kt4Oku-w0OLbl1mAjUG-17" edge="1">
          <mxGeometry relative="1" as="geometry" />
        </mxCell>
        <mxCell id="7Kt4Oku-w0OLbl1mAjUG-23" style="edgeStyle=orthogonalEdgeStyle;rounded=0;orthogonalLoop=1;jettySize=auto;html=1;entryX=0;entryY=0.5;entryDx=0;entryDy=0;" parent="1" source="7Kt4Oku-w0OLbl1mAjUG-10" target="7Kt4Oku-w0OLbl1mAjUG-19" edge="1">
          <mxGeometry relative="1" as="geometry" />
        </mxCell>
        <mxCell id="wIGGJUslOMY7jeg_qIJW-79" style="edgeStyle=orthogonalEdgeStyle;rounded=0;orthogonalLoop=1;jettySize=auto;html=1;entryX=1;entryY=0.5;entryDx=0;entryDy=0;endArrow=doubleBlock;endFill=1;" edge="1" parent="1" source="7Kt4Oku-w0OLbl1mAjUG-10" target="7Kt4Oku-w0OLbl1mAjUG-34">
          <mxGeometry relative="1" as="geometry" />
        </mxCell>
        <mxCell id="7Kt4Oku-w0OLbl1mAjUG-10" value="Utente" style="rounded=0;whiteSpace=wrap;html=1;" parent="1" vertex="1">
          <mxGeometry x="2020" y="580" width="120" height="60" as="geometry" />
        </mxCell>
        <mxCell id="7Kt4Oku-w0OLbl1mAjUG-15" value="" style="ellipse;whiteSpace=wrap;html=1;aspect=fixed;" parent="1" vertex="1">
          <mxGeometry x="2140" y="660" width="40" height="40" as="geometry" />
        </mxCell>
        <mxCell id="7Kt4Oku-w0OLbl1mAjUG-16" value="Nome" style="text;html=1;align=center;verticalAlign=middle;resizable=0;points=[];autosize=1;strokeColor=none;fillColor=none;" parent="1" vertex="1">
          <mxGeometry x="2173" y="665" width="60" height="30" as="geometry" />
        </mxCell>
        <mxCell id="7Kt4Oku-w0OLbl1mAjUG-17" value="" style="ellipse;whiteSpace=wrap;html=1;aspect=fixed;" parent="1" vertex="1">
          <mxGeometry x="2140" y="710" width="40" height="40" as="geometry" />
        </mxCell>
        <mxCell id="7Kt4Oku-w0OLbl1mAjUG-18" value="Cognome" style="text;html=1;align=center;verticalAlign=middle;resizable=0;points=[];autosize=1;strokeColor=none;fillColor=none;" parent="1" vertex="1">
          <mxGeometry x="2173" y="715" width="80" height="30" as="geometry" />
        </mxCell>
        <mxCell id="7Kt4Oku-w0OLbl1mAjUG-19" value="" style="ellipse;whiteSpace=wrap;html=1;aspect=fixed;fillColor=#f5f5f5;fontColor=#333333;strokeColor=#666666;" parent="1" vertex="1">
          <mxGeometry x="2140" y="760" width="40" height="40" as="geometry" />
        </mxCell>
        <mxCell id="7Kt4Oku-w0OLbl1mAjUG-20" value="Telefono" style="text;html=1;align=center;verticalAlign=middle;resizable=0;points=[];autosize=1;strokeColor=none;fillColor=none;" parent="1" vertex="1">
          <mxGeometry x="2178" y="765" width="70" height="30" as="geometry" />
        </mxCell>
        <mxCell id="7Kt4Oku-w0OLbl1mAjUG-25" value="Colore" style="text;html=1;align=center;verticalAlign=middle;resizable=0;points=[];autosize=1;strokeColor=none;fillColor=none;" parent="1" vertex="1">
          <mxGeometry x="1508" y="760" width="60" height="30" as="geometry" />
        </mxCell>
        <mxCell id="7Kt4Oku-w0OLbl1mAjUG-44" style="edgeStyle=orthogonalEdgeStyle;rounded=0;orthogonalLoop=1;jettySize=auto;html=1;entryX=0;entryY=0.5;entryDx=0;entryDy=0;" parent="1" source="7Kt4Oku-w0OLbl1mAjUG-34" target="7Kt4Oku-w0OLbl1mAjUG-40" edge="1">
          <mxGeometry relative="1" as="geometry" />
        </mxCell>
        <mxCell id="7Kt4Oku-w0OLbl1mAjUG-45" style="edgeStyle=orthogonalEdgeStyle;rounded=0;orthogonalLoop=1;jettySize=auto;html=1;entryX=0;entryY=0.5;entryDx=0;entryDy=0;" parent="1" source="7Kt4Oku-w0OLbl1mAjUG-34" target="7Kt4Oku-w0OLbl1mAjUG-42" edge="1">
          <mxGeometry relative="1" as="geometry" />
        </mxCell>
        <mxCell id="wIGGJUslOMY7jeg_qIJW-85" style="edgeStyle=orthogonalEdgeStyle;rounded=0;orthogonalLoop=1;jettySize=auto;html=1;entryX=0;entryY=0.5;entryDx=0;entryDy=0;" edge="1" parent="1" source="7Kt4Oku-w0OLbl1mAjUG-34" target="wIGGJUslOMY7jeg_qIJW-83">
          <mxGeometry relative="1" as="geometry" />
        </mxCell>
        <mxCell id="7Kt4Oku-w0OLbl1mAjUG-34" value="Ordine" style="rhombus;whiteSpace=wrap;html=1;" parent="1" vertex="1">
          <mxGeometry x="1720" y="570" width="80" height="80" as="geometry" />
        </mxCell>
        <mxCell id="7Kt4Oku-w0OLbl1mAjUG-40" value="" style="ellipse;whiteSpace=wrap;html=1;aspect=fixed;" parent="1" vertex="1">
          <mxGeometry x="1800" y="665" width="40" height="40" as="geometry" />
        </mxCell>
        <mxCell id="7Kt4Oku-w0OLbl1mAjUG-41" value="Data ordine" style="text;html=1;align=center;verticalAlign=middle;resizable=0;points=[];autosize=1;strokeColor=none;fillColor=none;" parent="1" vertex="1">
          <mxGeometry x="1828" y="670" width="90" height="30" as="geometry" />
        </mxCell>
        <mxCell id="7Kt4Oku-w0OLbl1mAjUG-42" value="" style="ellipse;whiteSpace=wrap;html=1;aspect=fixed;" parent="1" vertex="1">
          <mxGeometry x="1800" y="715" width="40" height="40" as="geometry" />
        </mxCell>
        <mxCell id="7Kt4Oku-w0OLbl1mAjUG-43" value="Data ritiro" style="text;html=1;align=center;verticalAlign=middle;resizable=0;points=[];autosize=1;strokeColor=none;fillColor=none;" parent="1" vertex="1">
          <mxGeometry x="1833" y="720" width="80" height="30" as="geometry" />
        </mxCell>
        <mxCell id="wIGGJUslOMY7jeg_qIJW-1" value="" style="ellipse;whiteSpace=wrap;html=1;aspect=fixed;" vertex="1" parent="1">
          <mxGeometry x="1470" y="755" width="40" height="40" as="geometry" />
        </mxCell>
        <mxCell id="wIGGJUslOMY7jeg_qIJW-4" value="Quantita" style="text;html=1;align=center;verticalAlign=middle;resizable=0;points=[];autosize=1;strokeColor=none;fillColor=none;" vertex="1" parent="1">
          <mxGeometry x="1510" y="810" width="70" height="30" as="geometry" />
        </mxCell>
        <mxCell id="wIGGJUslOMY7jeg_qIJW-5" value="" style="ellipse;whiteSpace=wrap;html=1;aspect=fixed;" vertex="1" parent="1">
          <mxGeometry x="1470" y="805" width="40" height="40" as="geometry" />
        </mxCell>
        <mxCell id="wIGGJUslOMY7jeg_qIJW-12" value="Ha" style="rhombus;whiteSpace=wrap;html=1;" vertex="1" parent="1">
          <mxGeometry x="1080" y="570" width="80" height="80" as="geometry" />
        </mxCell>
        <mxCell id="wIGGJUslOMY7jeg_qIJW-17" style="edgeStyle=orthogonalEdgeStyle;rounded=0;orthogonalLoop=1;jettySize=auto;html=1;entryX=1;entryY=0.5;entryDx=0;entryDy=0;" edge="1" parent="1" source="wIGGJUslOMY7jeg_qIJW-13" target="wIGGJUslOMY7jeg_qIJW-12">
          <mxGeometry relative="1" as="geometry" />
        </mxCell>
        <mxCell id="wIGGJUslOMY7jeg_qIJW-26" style="edgeStyle=orthogonalEdgeStyle;rounded=0;orthogonalLoop=1;jettySize=auto;html=1;entryX=0;entryY=0.5;entryDx=0;entryDy=0;" edge="1" parent="1" source="wIGGJUslOMY7jeg_qIJW-13" target="wIGGJUslOMY7jeg_qIJW-21">
          <mxGeometry relative="1" as="geometry" />
        </mxCell>
        <mxCell id="wIGGJUslOMY7jeg_qIJW-27" style="edgeStyle=orthogonalEdgeStyle;rounded=0;orthogonalLoop=1;jettySize=auto;html=1;entryX=0;entryY=0.5;entryDx=0;entryDy=0;" edge="1" parent="1" source="wIGGJUslOMY7jeg_qIJW-13" target="wIGGJUslOMY7jeg_qIJW-23">
          <mxGeometry relative="1" as="geometry" />
        </mxCell>
        <mxCell id="wIGGJUslOMY7jeg_qIJW-28" style="edgeStyle=orthogonalEdgeStyle;rounded=0;orthogonalLoop=1;jettySize=auto;html=1;entryX=0;entryY=0.5;entryDx=0;entryDy=0;" edge="1" parent="1" source="wIGGJUslOMY7jeg_qIJW-13" target="wIGGJUslOMY7jeg_qIJW-1">
          <mxGeometry relative="1" as="geometry" />
        </mxCell>
        <mxCell id="wIGGJUslOMY7jeg_qIJW-29" style="edgeStyle=orthogonalEdgeStyle;rounded=0;orthogonalLoop=1;jettySize=auto;html=1;entryX=0;entryY=0.5;entryDx=0;entryDy=0;" edge="1" parent="1" source="wIGGJUslOMY7jeg_qIJW-13" target="wIGGJUslOMY7jeg_qIJW-5">
          <mxGeometry relative="1" as="geometry" />
        </mxCell>
        <mxCell id="wIGGJUslOMY7jeg_qIJW-75" style="edgeStyle=orthogonalEdgeStyle;rounded=0;orthogonalLoop=1;jettySize=auto;html=1;entryX=0.5;entryY=1;entryDx=0;entryDy=0;endArrow=doubleBlock;endFill=1;" edge="1" parent="1" source="wIGGJUslOMY7jeg_qIJW-13" target="wIGGJUslOMY7jeg_qIJW-48">
          <mxGeometry relative="1" as="geometry" />
        </mxCell>
        <mxCell id="wIGGJUslOMY7jeg_qIJW-82" style="edgeStyle=orthogonalEdgeStyle;rounded=0;orthogonalLoop=1;jettySize=auto;html=1;entryX=0;entryY=0.5;entryDx=0;entryDy=0;endArrow=doubleBlock;endFill=1;" edge="1" parent="1" source="wIGGJUslOMY7jeg_qIJW-13" target="7Kt4Oku-w0OLbl1mAjUG-34">
          <mxGeometry relative="1" as="geometry" />
        </mxCell>
        <mxCell id="wIGGJUslOMY7jeg_qIJW-13" value="Variazione" style="rounded=0;whiteSpace=wrap;html=1;" vertex="1" parent="1">
          <mxGeometry x="1350" y="580" width="120" height="60" as="geometry" />
        </mxCell>
        <mxCell id="wIGGJUslOMY7jeg_qIJW-18" value="" style="endArrow=none;html=1;rounded=0;" edge="1" parent="1">
          <mxGeometry width="50" height="50" relative="1" as="geometry">
            <mxPoint x="2000" y="620" as="sourcePoint" />
            <mxPoint x="2000" y="600" as="targetPoint" />
          </mxGeometry>
        </mxCell>
        <mxCell id="wIGGJUslOMY7jeg_qIJW-21" value="" style="ellipse;whiteSpace=wrap;html=1;aspect=fixed;" vertex="1" parent="1">
          <mxGeometry x="1470" y="660" width="40" height="40" as="geometry" />
        </mxCell>
        <mxCell id="wIGGJUslOMY7jeg_qIJW-22" value="Taglia" style="text;html=1;align=center;verticalAlign=middle;resizable=0;points=[];autosize=1;strokeColor=none;fillColor=none;" vertex="1" parent="1">
          <mxGeometry x="1508" y="665" width="50" height="30" as="geometry" />
        </mxCell>
        <mxCell id="wIGGJUslOMY7jeg_qIJW-23" value="" style="ellipse;whiteSpace=wrap;html=1;aspect=fixed;" vertex="1" parent="1">
          <mxGeometry x="1470" y="710" width="40" height="40" as="geometry" />
        </mxCell>
        <mxCell id="wIGGJUslOMY7jeg_qIJW-24" value="Prezzo" style="text;html=1;align=center;verticalAlign=middle;resizable=0;points=[];autosize=1;strokeColor=none;fillColor=none;" vertex="1" parent="1">
          <mxGeometry x="1505" y="715" width="60" height="30" as="geometry" />
        </mxCell>
        <mxCell id="wIGGJUslOMY7jeg_qIJW-31" value="Appartiene" style="rhombus;whiteSpace=wrap;html=1;" vertex="1" parent="1">
          <mxGeometry x="789" y="800" width="80" height="80" as="geometry" />
        </mxCell>
        <mxCell id="wIGGJUslOMY7jeg_qIJW-35" style="edgeStyle=orthogonalEdgeStyle;rounded=0;orthogonalLoop=1;jettySize=auto;html=1;entryX=0.5;entryY=1;entryDx=0;entryDy=0;endArrow=doubleBlock;endFill=1;" edge="1" parent="1" source="wIGGJUslOMY7jeg_qIJW-33" target="wIGGJUslOMY7jeg_qIJW-31">
          <mxGeometry relative="1" as="geometry" />
        </mxCell>
        <mxCell id="wIGGJUslOMY7jeg_qIJW-38" style="edgeStyle=orthogonalEdgeStyle;rounded=0;orthogonalLoop=1;jettySize=auto;html=1;entryX=0;entryY=0.5;entryDx=0;entryDy=0;" edge="1" parent="1" source="wIGGJUslOMY7jeg_qIJW-33" target="wIGGJUslOMY7jeg_qIJW-36">
          <mxGeometry relative="1" as="geometry">
            <Array as="points">
              <mxPoint x="830" y="1120" />
            </Array>
          </mxGeometry>
        </mxCell>
        <mxCell id="wIGGJUslOMY7jeg_qIJW-33" value="Categoria" style="rounded=0;whiteSpace=wrap;html=1;" vertex="1" parent="1">
          <mxGeometry x="769" y="1015" width="120" height="60" as="geometry" />
        </mxCell>
        <mxCell id="wIGGJUslOMY7jeg_qIJW-36" value="" style="ellipse;whiteSpace=wrap;html=1;aspect=fixed;fillColor=#f5f5f5;fontColor=#333333;strokeColor=#666666;" vertex="1" parent="1">
          <mxGeometry x="890" y="1100" width="40" height="40" as="geometry" />
        </mxCell>
        <mxCell id="wIGGJUslOMY7jeg_qIJW-37" value="Nome" style="text;html=1;align=center;verticalAlign=middle;resizable=0;points=[];autosize=1;strokeColor=none;fillColor=none;" vertex="1" parent="1">
          <mxGeometry x="923" y="1105" width="60" height="30" as="geometry" />
        </mxCell>
        <mxCell id="wIGGJUslOMY7jeg_qIJW-39" value="" style="endArrow=none;html=1;rounded=0;" edge="1" parent="1">
          <mxGeometry width="50" height="50" relative="1" as="geometry">
            <mxPoint x="819" y="1000" as="sourcePoint" />
            <mxPoint x="839" y="1000" as="targetPoint" />
          </mxGeometry>
        </mxCell>
        <mxCell id="wIGGJUslOMY7jeg_qIJW-63" style="edgeStyle=orthogonalEdgeStyle;rounded=0;orthogonalLoop=1;jettySize=auto;html=1;entryX=0;entryY=0.5;entryDx=0;entryDy=0;" edge="1" parent="1" source="wIGGJUslOMY7jeg_qIJW-47" target="wIGGJUslOMY7jeg_qIJW-49">
          <mxGeometry relative="1" as="geometry">
            <Array as="points">
              <mxPoint x="1440" y="220" />
            </Array>
          </mxGeometry>
        </mxCell>
        <mxCell id="wIGGJUslOMY7jeg_qIJW-64" style="edgeStyle=orthogonalEdgeStyle;rounded=0;orthogonalLoop=1;jettySize=auto;html=1;entryX=0;entryY=0.5;entryDx=0;entryDy=0;" edge="1" parent="1" source="wIGGJUslOMY7jeg_qIJW-47" target="wIGGJUslOMY7jeg_qIJW-59">
          <mxGeometry relative="1" as="geometry">
            <Array as="points">
              <mxPoint x="1440" y="270" />
            </Array>
          </mxGeometry>
        </mxCell>
        <mxCell id="wIGGJUslOMY7jeg_qIJW-65" style="edgeStyle=orthogonalEdgeStyle;rounded=0;orthogonalLoop=1;jettySize=auto;html=1;entryX=0;entryY=0.5;entryDx=0;entryDy=0;" edge="1" parent="1" source="wIGGJUslOMY7jeg_qIJW-47" target="wIGGJUslOMY7jeg_qIJW-61">
          <mxGeometry relative="1" as="geometry">
            <Array as="points">
              <mxPoint x="1440" y="320" />
            </Array>
          </mxGeometry>
        </mxCell>
        <mxCell id="wIGGJUslOMY7jeg_qIJW-74" style="edgeStyle=orthogonalEdgeStyle;rounded=0;orthogonalLoop=1;jettySize=auto;html=1;entryX=0.5;entryY=0;entryDx=0;entryDy=0;" edge="1" parent="1" source="wIGGJUslOMY7jeg_qIJW-47" target="wIGGJUslOMY7jeg_qIJW-48">
          <mxGeometry relative="1" as="geometry" />
        </mxCell>
        <mxCell id="wIGGJUslOMY7jeg_qIJW-47" value="Offerta" style="rounded=0;whiteSpace=wrap;html=1;" vertex="1" parent="1">
          <mxGeometry x="1350" y="120" width="120" height="60" as="geometry" />
        </mxCell>
        <mxCell id="wIGGJUslOMY7jeg_qIJW-48" value="Ha" style="rhombus;whiteSpace=wrap;html=1;" vertex="1" parent="1">
          <mxGeometry x="1370" y="340" width="80" height="80" as="geometry" />
        </mxCell>
        <mxCell id="wIGGJUslOMY7jeg_qIJW-49" value="" style="ellipse;whiteSpace=wrap;html=1;aspect=fixed;" vertex="1" parent="1">
          <mxGeometry x="1469" y="200" width="40" height="40" as="geometry" />
        </mxCell>
        <mxCell id="wIGGJUslOMY7jeg_qIJW-50" value="Data inizio" style="text;html=1;align=center;verticalAlign=middle;resizable=0;points=[];autosize=1;strokeColor=none;fillColor=none;" vertex="1" parent="1">
          <mxGeometry x="1503" y="205" width="80" height="30" as="geometry" />
        </mxCell>
        <mxCell id="wIGGJUslOMY7jeg_qIJW-59" value="" style="ellipse;whiteSpace=wrap;html=1;aspect=fixed;" vertex="1" parent="1">
          <mxGeometry x="1470" y="250" width="40" height="40" as="geometry" />
        </mxCell>
        <mxCell id="wIGGJUslOMY7jeg_qIJW-60" value="Data fine" style="text;html=1;align=center;verticalAlign=middle;resizable=0;points=[];autosize=1;strokeColor=none;fillColor=none;" vertex="1" parent="1">
          <mxGeometry x="1509" y="255" width="70" height="30" as="geometry" />
        </mxCell>
        <mxCell id="wIGGJUslOMY7jeg_qIJW-61" value="" style="ellipse;whiteSpace=wrap;html=1;aspect=fixed;" vertex="1" parent="1">
          <mxGeometry x="1470" y="300" width="40" height="40" as="geometry" />
        </mxCell>
        <mxCell id="wIGGJUslOMY7jeg_qIJW-62" value="Sconto" style="text;html=1;align=center;verticalAlign=middle;resizable=0;points=[];autosize=1;strokeColor=none;fillColor=none;" vertex="1" parent="1">
          <mxGeometry x="1509" y="305" width="60" height="30" as="geometry" />
        </mxCell>
        <mxCell id="wIGGJUslOMY7jeg_qIJW-67" value="" style="ellipse;whiteSpace=wrap;html=1;aspect=fixed;" vertex="1" parent="1">
          <mxGeometry x="889" y="715" width="40" height="40" as="geometry" />
        </mxCell>
        <mxCell id="wIGGJUslOMY7jeg_qIJW-68" value="Nome" style="text;html=1;align=center;verticalAlign=middle;resizable=0;points=[];autosize=1;strokeColor=none;fillColor=none;" vertex="1" parent="1">
          <mxGeometry x="923" y="720" width="60" height="30" as="geometry" />
        </mxCell>
        <mxCell id="wIGGJUslOMY7jeg_qIJW-71" value="" style="ellipse;whiteSpace=wrap;html=1;aspect=fixed;" vertex="1" parent="1">
          <mxGeometry x="890" y="765" width="40" height="40" as="geometry" />
        </mxCell>
        <mxCell id="wIGGJUslOMY7jeg_qIJW-72" value="Desrizione" style="text;html=1;align=center;verticalAlign=middle;resizable=0;points=[];autosize=1;strokeColor=none;fillColor=none;" vertex="1" parent="1">
          <mxGeometry x="930" y="770" width="80" height="30" as="geometry" />
        </mxCell>
        <mxCell id="wIGGJUslOMY7jeg_qIJW-76" value="" style="endArrow=none;html=1;rounded=0;" edge="1" parent="1">
          <mxGeometry width="50" height="50" relative="1" as="geometry">
            <mxPoint x="1400" y="569.67" as="sourcePoint" />
            <mxPoint x="1420" y="569.67" as="targetPoint" />
          </mxGeometry>
        </mxCell>
        <mxCell id="wIGGJUslOMY7jeg_qIJW-77" value="" style="endArrow=none;html=1;rounded=0;" edge="1" parent="1">
          <mxGeometry width="50" height="50" relative="1" as="geometry">
            <mxPoint x="908.8" y="620" as="sourcePoint" />
            <mxPoint x="908.8" y="600" as="targetPoint" />
          </mxGeometry>
        </mxCell>
        <mxCell id="wIGGJUslOMY7jeg_qIJW-78" value="" style="endArrow=none;html=1;rounded=0;" edge="1" parent="1">
          <mxGeometry width="50" height="50" relative="1" as="geometry">
            <mxPoint x="869" y="795" as="sourcePoint" />
            <mxPoint x="869" y="775" as="targetPoint" />
          </mxGeometry>
        </mxCell>
        <mxCell id="wIGGJUslOMY7jeg_qIJW-81" value="" style="endArrow=none;html=1;rounded=0;" edge="1" parent="1">
          <mxGeometry width="50" height="50" relative="1" as="geometry">
            <mxPoint x="1490" y="620" as="sourcePoint" />
            <mxPoint x="1490" y="600" as="targetPoint" />
          </mxGeometry>
        </mxCell>
        <mxCell id="wIGGJUslOMY7jeg_qIJW-83" value="" style="ellipse;whiteSpace=wrap;html=1;aspect=fixed;" vertex="1" parent="1">
          <mxGeometry x="1800" y="765" width="40" height="40" as="geometry" />
        </mxCell>
        <mxCell id="wIGGJUslOMY7jeg_qIJW-84" value="Quantita" style="text;html=1;align=center;verticalAlign=middle;resizable=0;points=[];autosize=1;strokeColor=none;fillColor=none;" vertex="1" parent="1">
          <mxGeometry x="1833" y="770" width="70" height="30" as="geometry" />
        </mxCell>
        <mxCell id="wIGGJUslOMY7jeg_qIJW-87" value="" style="endArrow=none;html=1;rounded=0;" edge="1" parent="1">
          <mxGeometry width="50" height="50" relative="1" as="geometry">
            <mxPoint x="1780" y="745" as="sourcePoint" />
            <mxPoint x="1780" y="725" as="targetPoint" />
          </mxGeometry>
        </mxCell>
      </root>
    </mxGraphModel>
  </diagram>
</mxfile>
